# xmcd CD database file
#
# Track frame offsets:
#	183
#	10968
#	24970
#	36013
#	50663
#	64588
#	78278
#	92260
#	105678
#	117405
#	131955
#	145843
#	158743
#	170858
#	184338
#	197785
#	212210
#
# Disc length: 3014 seconds
#
# Revision: 0
# Processed by: cddbd v1.5.2PL0 Copyright (c) Steve Scherf et al.
# Submitted via: CDex 1.70beta2
#
DISCID=ed0bc411
DTITLE=Jazz Tribune No. 62 - "Chicago Blues" (1935-42) CD 1
DYEAR=1995
DGENRE=Blues
TTITLE0=William Gillum - Don't You Scandalize My Name
TTITLE1=William Gillum - Sarah Jane
TTITLE2=William Gillum - Gillum's Windy Blues
TTITLE3=William Gillum - Mule Blues
TTITLE4=William Gillum - Against My Will
TTITLE5=John Lee Williamson - Good Morning, School Girl
TTITLE6=John Lee Williamson - Blue Bird Blues
TTITLE7=John Lee Williamson - Jackson Blues
TTITLE8=John Lee Williamson - Got The Bottle Up And Gone
TTITLE9=William L.C. Broonzy - I Can't Make You Satisfied
TTITLE10=William L.C. Broonzy - Bad Luck Blues
TTITLE11=William L.C. Broonzy - Keep Your Hands Off Her
TTITLE12=William L.C. Broonzy - Good Liquor Gonna Carry Me Down
TTITLE13=Hudson Whittaker - That's The Way I Do
TTITLE14=Hudson Whittaker - Your One And Only
TTITLE15=Hudson Whittaker - She Said It
TTITLE16=Hudson Whittaker - Just You And I Alone
EXTD=YEAR: 1995
EXTT0=
EXTT1=
EXTT2=
EXTT3=
EXTT4=
EXTT5=
EXTT6=
EXTT7=
EXTT8=
EXTT9=
EXTT10=
EXTT11=
EXTT12=
EXTT13=
EXTT14=
EXTT15=
EXTT16=
PLAYORDER=
